<svg width="24" height="24" viewBox="0 0 24 24" fill="none" xmlns="http://www.w3.org/2000/svg">
<path d="M12 0C5.3832 0 0 5.3832 0 12C0 18.6168 5.3832 24 12 24C18.6168 24 24 18.6168 24 12C24 5.3832 18.6168 0 12 0ZM6.4716 9.666C6.15867 10.4043 5.99825 11.1982 6 12H3.6C3.59864 10.8966 3.81537 9.80375 4.23775 8.78436C4.66013 7.76497 5.27982 6.83911 6.0612 6.06C6.82637 5.29291 7.73313 4.68161 8.7312 4.26L9.666 6.4704C8.9508 6.7728 8.31 7.2048 7.758 7.7568C7.206 8.3088 6.774 8.9508 6.4716 9.666ZM11.9916 14.4C11.3529 14.4 10.7403 14.1463 10.2886 13.6946C9.83694 13.2429 9.5832 12.6303 9.5832 11.9916C9.5832 11.3529 9.83694 10.7403 10.2886 10.2886C10.7403 9.83694 11.3529 9.5832 11.9916 9.5832C12.6303 9.5832 13.2429 9.83694 13.6946 10.2886C14.1463 10.7403 14.4 11.3529 14.4 11.9916C14.4 12.6303 14.1463 13.2429 13.6946 13.6946C13.2429 14.1463 12.6303 14.4 11.9916 14.4Z" fill="url(#paint0_linear)"/>
<defs>
<linearGradient id="paint0_linear" x1="0" y1="0" x2="28.8877" y2="13.6752" gradientUnits="userSpaceOnUse">
<stop stop-color="#891DDF"/>
<stop offset="0.6771" stop-color="#6611AD"/>
<stop offset="0.8594" stop-color="#5E009C"/>
</linearGradient>
</defs>
</svg>
