<svg width="118" height="118" viewBox="0 0 118 118" fill="none" xmlns="http://www.w3.org/2000/svg">
<path d="M116.424 0.916503C115.438 0.115716 114.14 -0.162452 112.875 0.0904284L37.0183 16.9491C35.0881 17.379 33.7143 19.0902 33.7143 21.0626V87.7387C30.1827 85.5976 25.8336 84.2827 21.0714 84.2827C9.45686 84.2827 0 91.8438 0 101.141C0 110.439 9.45686 118 21.0714 118C32.686 118 42.1429 110.439 42.1429 101.141V49.7308L109.571 34.7434V70.88C106.04 68.739 101.691 67.424 96.9286 67.424C85.3056 67.424 75.8571 74.9851 75.8571 84.2827C75.8571 93.5802 85.3056 101.141 96.9286 101.141C108.552 101.141 118 93.5802 118 84.2827V4.20395C118 2.92269 117.427 1.71729 116.424 0.916503Z" fill="url(#paint0_linear)"/>
<defs>
<linearGradient id="paint0_linear" x1="0" y1="0" x2="142.031" y2="67.2365" gradientUnits="userSpaceOnUse">
<stop stop-color="#891DDF"/>
<stop offset="0.6771" stop-color="#6611AD"/>
<stop offset="0.8594" stop-color="#5E009C"/>
</linearGradient>
</defs>
</svg>
