<svg width="15" height="18" viewBox="0 0 15 18" fill="none" xmlns="http://www.w3.org/2000/svg">
<path d="M1.01583 16C1.01583 17.1 1.93007 18 3.04748 18H11.1741C12.2915 18 13.2057 17.1 13.2057 16V5.99999C13.2057 4.89999 12.2915 4 11.1741 4H3.04748C1.93007 4 1.01583 4.89999 1.01583 5.99999V16ZM13.2057 0.999999H10.6662L9.94493 0.29C9.76208 0.11 9.49797 0 9.23385 0H4.9877C4.72359 0 4.45947 0.11 4.27663 0.29L3.55539 0.999999H1.01583C0.457121 0.999999 0 1.45 0 2C0 2.55 0.457121 3 1.01583 3H13.2057C13.7644 3 14.2216 2.55 14.2216 2C14.2216 1.45 13.7644 0.999999 13.2057 0.999999Z" fill="#E0E0E0"/>
</svg>
