<svg width="17" height="17" viewBox="0 0 17 17" fill="none" xmlns="http://www.w3.org/2000/svg">
<path d="M1.02948 11.3264L0.0251336 15.67C-0.0095131 15.8288 -0.00832539 15.9933 0.0286098 16.1516C0.065545 16.3098 0.137295 16.4578 0.238618 16.5848C0.33994 16.7117 0.468277 16.8143 0.614251 16.8852C0.760225 16.956 0.92015 16.9933 1.08234 16.9943C1.15792 17.0019 1.23407 17.0019 1.30964 16.9943L5.67063 15.9878L14.0437 7.6291L9.37086 2.95712L1.02948 11.3264Z" fill="#E0E0E0"/>
<path d="M16.6762 3.44444L13.5574 0.319193C13.3524 0.114761 13.0749 0 12.7856 0C12.4964 0 12.2189 0.114761 12.0139 0.319193L10.2801 2.05662L14.9476 6.7339L16.6815 4.99648C16.7829 4.89428 16.8633 4.77305 16.9179 4.6397C16.9726 4.50635 17.0005 4.36352 17 4.21936C16.9995 4.07521 16.9706 3.93256 16.9151 3.79959C16.8595 3.66662 16.7783 3.54594 16.6762 3.44444Z" fill="#E0E0E0"/>
</svg>
