<svg width="48" height="66" viewBox="0 0 48 66" fill="none" xmlns="http://www.w3.org/2000/svg">
<path d="M19.9999 29.3333H10.6666C10.313 29.3333 9.97382 29.1401 9.72378 28.7963C9.47373 28.4525 9.33325 27.9861 9.33325 27.4999V14.6666C9.33325 14.1804 9.47373 13.714 9.72378 13.3702C9.97382 13.0264 10.313 12.8333 10.6666 12.8333H19.9999C20.3535 12.8333 20.6927 13.0264 20.9427 13.3702C21.1928 13.714 21.3333 14.1804 21.3333 14.6666V27.4999C21.3333 27.9861 21.1928 28.4525 20.9427 28.7963C20.6927 29.1401 20.3535 29.3333 19.9999 29.3333Z" fill="white"/>
<path d="M19.9999 53.1665H10.6666C10.313 53.1665 9.97382 52.9733 9.72378 52.6295C9.47373 52.2857 9.33325 51.8194 9.33325 51.3332V38.4998C9.33325 38.0136 9.47373 37.5473 9.72378 37.2035C9.97382 36.8597 10.313 36.6665 10.6666 36.6665H19.9999C20.3535 36.6665 20.6927 36.8597 20.9427 37.2035C21.1928 37.5473 21.3333 38.0136 21.3333 38.4998V51.3332C21.3333 51.8194 21.1928 52.2857 20.9427 52.6295C20.6927 52.9733 20.3535 53.1665 19.9999 53.1665Z" fill="white"/>
<path d="M25.3334 14.6665H38.6667V18.3332H25.3334V14.6665Z" fill="white"/>
<path d="M38.6667 38.5H25.3334V42.1667H38.6667V38.5Z" fill="white"/>
<path d="M38.6667 47.6665H25.3334V51.3332H38.6667V47.6665Z" fill="white"/>
<path d="M38.6667 23.8333H25.3334V27.4999H38.6667V23.8333Z" fill="white"/>
</svg>
