<svg width="48" height="48" viewBox="0 0 48 48" fill="none" xmlns="http://www.w3.org/2000/svg">
<path d="M14.6667 9.33325H10.6667C10.3131 9.33325 9.97395 9.47373 9.7239 9.72378C9.47385 9.97382 9.33337 10.313 9.33337 10.6666V37.3333C9.33337 37.6869 9.47385 38.026 9.7239 38.2761C9.97395 38.5261 10.3131 38.6666 10.6667 38.6666H14.6667V9.33325Z" fill="white"/>
<path d="M17.3334 38.6666H30.6667V9.33325H17.3334V38.6666ZM24 33.3333C23.6464 33.3333 23.3073 33.1928 23.0572 32.9427C22.8072 32.6927 22.6667 32.3535 22.6667 31.9999C22.6667 31.6463 22.8072 31.3072 23.0572 31.0571C23.3073 30.8071 23.6464 30.6666 24 30.6666C24.3537 30.6666 24.6928 30.8071 24.9429 31.0571C25.1929 31.3072 25.3334 31.6463 25.3334 31.9999C25.3334 32.3535 25.1929 32.6927 24.9429 32.9427C24.6928 33.1928 24.3537 33.3333 24 33.3333ZM24 14.6666C24.3537 14.6666 24.6928 14.8071 24.9429 15.0571C25.1929 15.3072 25.3334 15.6463 25.3334 15.9999C25.3334 16.3535 25.1929 16.6927 24.9429 16.9427C24.6928 17.1928 24.3537 17.3333 24 17.3333C23.6464 17.3333 23.3073 17.1928 23.0572 16.9427C22.8072 16.6927 22.6667 16.3535 22.6667 15.9999C22.6667 15.6463 22.8072 15.3072 23.0572 15.0571C23.3073 14.8071 23.6464 14.6666 24 14.6666ZM24 22.6666C24.3537 22.6666 24.6928 22.8071 24.9429 23.0571C25.1929 23.3072 25.3334 23.6463 25.3334 23.9999C25.3334 24.3535 25.1929 24.6927 24.9429 24.9427C24.6928 25.1928 24.3537 25.3333 24 25.3333C23.6464 25.3333 23.3073 25.1928 23.0572 24.9427C22.8072 24.6927 22.6667 24.3535 22.6667 23.9999C22.6667 23.6463 22.8072 23.3072 23.0572 23.0571C23.3073 22.8071 23.6464 22.6666 24 22.6666Z" fill="white"/>
<path d="M37.3334 9.33325H33.3334V38.6666H37.3334C37.687 38.6666 38.0261 38.5261 38.2762 38.2761C38.5262 38.026 38.6667 37.6869 38.6667 37.3333V10.6666C38.6667 10.313 38.5262 9.97382 38.2762 9.72378C38.0261 9.47373 37.687 9.33325 37.3334 9.33325Z" fill="white"/>
</svg>
