<svg width="32" height="32" viewBox="0 0 32 32" fill="none" xmlns="http://www.w3.org/2000/svg">
<path fill-rule="evenodd" clip-rule="evenodd" d="M16.0015 0C11.6561 0 11.1108 0.0190001 9.4041 0.0966673C7.70075 0.174668 6.53807 0.444338 5.52073 0.840009C4.46838 1.24868 3.5757 1.79535 2.68636 2.68503C1.79635 3.57437 1.24968 4.46705 0.839676 5.51906C0.443005 6.53674 0.173002 7.69975 0.0963345 9.40243C0.0200005 11.1091 0 11.6548 0 16.0002C0 20.3455 0.0193338 20.8892 0.0966673 22.5959C0.175002 24.2993 0.444672 25.4619 0.840009 26.4793C1.24901 27.5316 1.79569 28.4243 2.68536 29.3136C3.57437 30.2036 4.46705 30.7517 5.51872 31.1603C6.53674 31.556 7.69975 31.8257 9.40276 31.9037C11.1094 31.9813 11.6545 32.0003 15.9995 32.0003C20.3452 32.0003 20.8889 31.9813 22.5956 31.9037C24.2989 31.8257 25.4629 31.556 26.4809 31.1603C27.533 30.7517 28.4243 30.2036 29.3133 29.3136C30.2033 28.4243 30.75 27.5316 31.16 26.4796C31.5533 25.4619 31.8233 24.2989 31.9033 22.5962C31.98 20.8895 32 20.3455 32 16.0002C32 11.6548 31.98 11.1094 31.9033 9.40276C31.8233 7.69941 31.5533 6.53674 31.16 5.51939C30.75 4.46705 30.2033 3.57437 29.3133 2.68503C28.4233 1.79502 27.5333 1.24835 26.4799 0.840009C25.4599 0.444338 24.2966 0.174668 22.5932 0.0966673C20.8866 0.0190001 20.3432 0 15.9965 0H16.0015ZM15.4682 2.88275C15.1446 2.8826 14.8448 2.88247 14.5661 2.88291V2.87891C11.5841 2.88224 11.0121 2.90224 9.53605 2.96891C7.97603 3.04057 7.12902 3.30058 6.56502 3.52058C5.81834 3.81125 5.285 4.15792 4.725 4.71793C4.16499 5.27793 3.81765 5.81127 3.52765 6.55794C3.30865 7.12195 3.04798 7.96863 2.97664 9.52864C2.89998 11.2153 2.88464 11.7193 2.88464 15.992C2.88464 20.2648 2.89998 20.7714 2.97664 22.4581C3.04765 24.0181 3.30865 24.8648 3.52765 25.4281C3.81832 26.1751 4.16499 26.7072 4.725 27.2672C5.285 27.8272 5.81834 28.1738 6.56502 28.4638C7.12935 28.6828 7.97603 28.9435 9.53605 29.0155C11.2227 29.0922 11.7291 29.1088 16.0014 29.1088C20.2735 29.1088 20.7802 29.0922 22.4668 29.0155C24.0269 28.9442 24.8742 28.6842 25.4375 28.4642C26.1846 28.1742 26.7162 27.8275 27.2762 27.2675C27.8362 26.7078 28.1836 26.1761 28.4736 25.4295C28.6926 24.8661 28.9532 24.0195 29.0246 22.4594C29.1012 20.7728 29.1179 20.2661 29.1179 15.996C29.1179 11.726 29.1012 11.2193 29.0246 9.53264C28.9536 7.97263 28.6926 7.12595 28.4736 6.56261C28.1829 5.81594 27.8362 5.2826 27.2762 4.72259C26.7166 4.16259 26.1842 3.81592 25.4375 3.52591C24.8735 3.30691 24.0269 3.04624 22.4668 2.97491C20.7798 2.89824 20.2735 2.88291 16.0014 2.88291L15.4682 2.88275ZM22.6222 7.45895C22.6222 6.39861 23.4822 5.5396 24.5422 5.5396C25.6022 5.5396 26.4622 6.39894 26.4622 7.45895C26.4622 8.51896 25.6022 9.37897 24.5422 9.37897C23.4822 9.37897 22.6222 8.51896 22.6222 7.45895ZM16.0014 7.78296C11.4637 7.78296 7.78469 11.462 7.78469 15.9997C7.78469 20.5374 11.4637 24.2148 16.0014 24.2148C20.5392 24.2148 24.2169 20.5374 24.2169 15.9997C24.2169 11.4621 20.539 7.78313 16.0014 7.78296ZM16.0015 10.667C18.9468 10.667 21.3349 13.0547 21.3349 16.0004C21.3349 18.9457 18.9468 21.3338 16.0015 21.3338C13.0558 21.3338 10.6681 18.9457 10.6681 16.0004C10.6681 13.0547 13.0558 10.667 16.0015 10.667Z" fill="#E0E0E0"/>
</svg>
