<svg width="23" height="32" viewBox="0 0 23 32" fill="none" xmlns="http://www.w3.org/2000/svg">
<path d="M23.0002 11.1999C23.0002 9.72913 22.7028 8.27273 22.1249 6.91388C21.5469 5.55504 20.6998 4.32036 19.632 3.28034C18.5641 2.24033 17.2963 1.41534 15.9011 0.852488C14.5059 0.289635 13.0104 -6.10352e-05 11.5002 -6.10352e-05C9.99004 -6.10352e-05 8.49463 0.289635 7.09938 0.852488C5.70414 1.41534 4.43639 2.24033 3.36852 3.28034C2.30064 4.32036 1.45356 5.55504 0.875629 6.91388C0.2977 8.27273 0.000244118 9.72913 0.000244141 11.1999C0.000244141 13.4191 0.673816 15.4831 1.8156 17.2239H1.80246C5.6796 23.1359 11.5002 31.9999 11.5002 31.9999L21.198 17.2239H21.1865C22.3701 15.4261 22.9995 13.3355 23.0002 11.1999ZM11.5002 15.9999C10.1931 15.9999 8.9395 15.4942 8.01522 14.5941C7.09093 13.6939 6.57167 12.473 6.57167 11.1999C6.57167 9.9269 7.09093 8.706 8.01522 7.80583C8.9395 6.90565 10.1931 6.39994 11.5002 6.39994C12.8074 6.39994 14.061 6.90565 14.9853 7.80583C15.9096 8.706 16.4288 9.9269 16.4288 11.1999C16.4288 12.473 15.9096 13.6939 14.9853 14.5941C14.061 15.4942 12.8074 15.9999 11.5002 15.9999Z" fill="#F5FAFE"/>
</svg>
