<svg width="26" height="22" viewBox="0 0 26 22" fill="none" xmlns="http://www.w3.org/2000/svg">
<path fill-rule="evenodd" clip-rule="evenodd" d="M0 3.1801C0 3.1801 10.8864 9.45659 12.9995 9.45659C15.2142 9.45659 25.9827 3.3 25.9827 3.3L26 2.2C26 0.985599 25.0306 0 23.8329 0H2.16604C0.969414 0 0 0.985599 0 2.2V3.1801ZM12.9995 12.4816C15.3159 12.4816 25.9827 6.6 25.9827 6.6L26 19.8C26 21.0144 25.0306 22 23.8329 22H2.16604C0.970497 22 0 21.0144 0 19.8L0.0173104 6.6C0.0173104 6.6 10.8864 12.4816 12.9995 12.4816Z" fill="url(#paint0_linear)"/>
<defs>
<linearGradient id="paint0_linear" x1="0" y1="0" x2="29.1761" y2="16.323" gradientUnits="userSpaceOnUse">
<stop stop-color="#891DDF"/>
<stop offset="0.6771" stop-color="#6611AD"/>
<stop offset="0.8594" stop-color="#5E009C"/>
</linearGradient>
</defs>
</svg>
