<svg width="32" height="32" viewBox="0 0 32 32" fill="none" xmlns="http://www.w3.org/2000/svg">
<path d="M31.5726 0.248543C31.3051 0.0313807 30.9531 -0.0440547 30.6103 0.024523L10.0389 4.59637C9.51543 4.71295 9.14286 5.17699 9.14286 5.7119V23.7935C8.18514 23.2129 7.00571 22.8563 5.71429 22.8563C2.56457 22.8563 0 24.9068 0 27.4282C0 29.9495 2.56457 32 5.71429 32C8.864 32 11.4286 29.9495 11.4286 27.4282V13.4863L29.7143 9.42195V19.2217C28.7566 18.6411 27.5771 18.2845 26.2857 18.2845C23.1337 18.2845 20.5714 20.3349 20.5714 22.8563C20.5714 25.3777 23.1337 27.4282 26.2857 27.4282C29.4377 27.4282 32 25.3777 32 22.8563V1.14005C32 0.792593 31.8446 0.465706 31.5726 0.248543Z" fill="white"/>
</svg>
