<svg width="26" height="26" viewBox="0 0 26 26" fill="none" xmlns="http://www.w3.org/2000/svg">
<path d="M25.5224 20.3664L19.5896 14.9722C19.3091 14.7174 18.9406 14.5814 18.5618 14.5931C18.183 14.6048 17.8236 14.7633 17.5594 15.035L14.0669 18.6268C13.2262 18.4662 11.5362 17.9394 9.79645 16.204C8.05675 14.4629 7.52988 12.7685 7.37371 11.9336L10.9626 8.43966C11.2346 8.17569 11.3933 7.81621 11.405 7.43731C11.4167 7.05841 11.2806 6.68982 11.0253 6.40954L5.63255 0.478257C5.3772 0.1971 5.02231 0.026557 4.64325 0.00284858C4.26418 -0.0208599 3.8908 0.104134 3.60241 0.351283L0.435337 3.06736C0.183009 3.3206 0.0324027 3.65764 0.0120874 4.01455C-0.00980485 4.37942 -0.427216 13.0224 6.27472 19.7272C12.1214 25.5724 19.4451 26 21.4621 26C21.7569 26 21.9379 25.9912 21.986 25.9883C22.3429 25.9683 22.6798 25.8171 22.9318 25.5636L25.6464 22.3951C25.8945 22.1076 26.0205 21.7346 25.9973 21.3555C25.9741 20.9765 25.8037 20.6215 25.5224 20.3664Z" fill="url(#paint0_linear)"/>
<defs>
<linearGradient id="paint0_linear" x1="0" y1="0" x2="31.295" y2="14.8148" gradientUnits="userSpaceOnUse">
<stop stop-color="#891DDF"/>
<stop offset="0.6771" stop-color="#6611AD"/>
<stop offset="0.8594" stop-color="#5E009C"/>
</linearGradient>
</defs>
</svg>
