<svg width="36" height="32" viewBox="0 0 36 32" fill="none" xmlns="http://www.w3.org/2000/svg">
<path fill-rule="evenodd" clip-rule="evenodd" d="M31.5 2.28571H4.5C3.90326 2.28571 3.33097 2.52653 2.90901 2.95518C2.48705 3.38384 2.25 3.96522 2.25 4.57143V27.4286C2.25 28.0348 2.48705 28.6162 2.90901 29.0448C3.33097 29.4735 3.90326 29.7143 4.5 29.7143H31.5C32.0967 29.7143 32.669 29.4735 33.091 29.0448C33.5129 28.6162 33.75 28.0348 33.75 27.4286V4.57143C33.75 3.96522 33.5129 3.38384 33.091 2.95518C32.669 2.52653 32.0967 2.28571 31.5 2.28571ZM4.5 0C3.30653 0 2.16193 0.481631 1.31802 1.33894C0.474106 2.19625 0 3.35901 0 4.57143V27.4286C0 28.641 0.474106 29.8038 1.31802 30.6611C2.16193 31.5184 3.30653 32 4.5 32H31.5C32.091 32 32.6761 31.8818 33.2221 31.652C33.768 31.4223 34.2641 31.0856 34.682 30.6611C35.0998 30.2366 35.4313 29.7326 35.6575 29.178C35.8836 28.6234 36 28.0289 36 27.4286V4.57143C36 3.35901 35.5259 2.19625 34.682 1.33894C33.8381 0.481631 32.6935 0 31.5 0H4.5Z" fill="url(#paint0_linear)"/>
<path d="M23.9535 15.1909C24.1206 15.0216 24.3359 14.91 24.5689 14.8718C24.8019 14.8337 25.0408 14.8709 25.2518 14.9783L33.75 19.4286V29.7143H2.25V25.1429L8.2035 19.7623C8.3874 19.5761 8.62901 19.4603 8.88736 19.4345C9.14571 19.4087 9.40491 19.4744 9.621 19.6206L15.606 23.6731L23.9535 15.1909Z" fill="url(#paint1_linear)"/>
<path fill-rule="evenodd" clip-rule="evenodd" d="M10.125 13.7143C10.5682 13.7143 11.0071 13.6256 11.4166 13.4533C11.826 13.281 12.1981 13.0285 12.5115 12.7101C12.8249 12.3917 13.0735 12.0137 13.2431 11.5978C13.4127 11.1818 13.5 10.736 13.5 10.2857C13.5 9.83547 13.4127 9.38963 13.2431 8.97366C13.0735 8.55768 12.8249 8.17972 12.5115 7.86135C12.1981 7.54298 11.826 7.29043 11.4166 7.11813C11.0071 6.94583 10.5682 6.85714 10.125 6.85714C9.22989 6.85714 8.37145 7.21837 7.73851 7.86135C7.10558 8.50433 6.75 9.3764 6.75 10.2857C6.75 11.195 7.10558 12.0671 7.73851 12.7101C8.37145 13.3531 9.22989 13.7143 10.125 13.7143Z" fill="url(#paint2_linear)"/>
<defs>
<linearGradient id="paint0_linear" x1="0" y1="0" x2="41.3221" y2="22.0068" gradientUnits="userSpaceOnUse">
<stop stop-color="#891DDF"/>
<stop offset="0.6771" stop-color="#6611AD"/>
<stop offset="0.8594" stop-color="#5E009C"/>
</linearGradient>
<linearGradient id="paint1_linear" x1="0" y1="0" x2="41.3221" y2="22.0068" gradientUnits="userSpaceOnUse">
<stop stop-color="#891DDF"/>
<stop offset="0.6771" stop-color="#6611AD"/>
<stop offset="0.8594" stop-color="#5E009C"/>
</linearGradient>
<linearGradient id="paint2_linear" x1="0" y1="0" x2="41.3221" y2="22.0068" gradientUnits="userSpaceOnUse">
<stop stop-color="#891DDF"/>
<stop offset="0.6771" stop-color="#6611AD"/>
<stop offset="0.8594" stop-color="#5E009C"/>
</linearGradient>
</defs>
</svg>
