<svg width="27" height="27" viewBox="0 0 27 27" fill="none" xmlns="http://www.w3.org/2000/svg">
<path d="M26.6661 11.4481L23.6481 10.5481C23.4394 9.82027 23.1525 9.11717 22.7923 8.4511L24.2697 5.68811C24.3252 5.58382 24.3455 5.46445 24.3276 5.34771C24.3098 5.23098 24.2547 5.12311 24.1706 5.04011L22.0175 2.88012C21.9344 2.79613 21.8265 2.74113 21.7096 2.72329C21.5928 2.70546 21.4733 2.72574 21.3689 2.78112L18.6212 4.24812C17.9479 3.87071 17.2349 3.56888 16.4951 3.34812L15.5942 0.369136C15.5561 0.259351 15.4841 0.164476 15.3886 0.0981669C15.2931 0.0318579 15.179 -0.00246531 15.0627 0.000137851H12.0177C11.9008 0.000681965 11.787 0.0385087 11.693 0.108113C11.599 0.177718 11.5298 0.275467 11.4952 0.387136L10.5944 3.35712C9.84844 3.5767 9.12931 3.87856 8.45026 4.25712L5.74762 2.79912C5.64322 2.74374 5.52373 2.72346 5.40689 2.74129C5.29004 2.75913 5.18206 2.81413 5.09898 2.89812L2.90984 5.03111C2.82576 5.11411 2.77071 5.22198 2.75286 5.33871C2.73501 5.45545 2.75531 5.57482 2.81075 5.67911L4.27017 8.3791C3.89185 9.05463 3.58971 9.77 3.36929 10.5121L0.387379 11.4121C0.2756 11.4466 0.177754 11.5158 0.108081 11.6097C0.0384086 11.7036 0.000544649 11.8172 0 11.9341V14.9761C0.000544649 15.0929 0.0384086 15.2066 0.108081 15.3005C0.177754 15.3944 0.2756 15.4636 0.387379 15.4981L3.38731 16.3981C3.61014 17.1278 3.91223 17.831 4.28819 18.495L2.81075 21.321C2.75531 21.4253 2.73501 21.5447 2.75286 21.6614C2.77071 21.7782 2.82576 21.886 2.90984 21.969L5.06295 24.12C5.14603 24.204 5.254 24.259 5.37085 24.2768C5.4877 24.2947 5.60719 24.2744 5.71158 24.219L8.4953 22.734C9.15381 23.089 9.84844 23.3726 10.5673 23.58L11.4682 26.613C11.5027 26.7247 11.572 26.8224 11.666 26.892C11.76 26.9616 11.8737 26.9995 11.9907 27H15.0357C15.1527 26.9995 15.2664 26.9616 15.3604 26.892C15.4544 26.8224 15.5237 26.7247 15.5582 26.613L16.4591 23.571C17.1718 23.3625 17.8604 23.079 18.5131 22.725L21.3148 24.219C21.4192 24.2744 21.5387 24.2947 21.6556 24.2768C21.7724 24.259 21.8804 24.204 21.9635 24.12L24.1166 21.969C24.2006 21.886 24.2557 21.7782 24.2736 21.6614C24.2914 21.5447 24.2711 21.4253 24.2157 21.321L22.7202 18.531C23.0782 17.8765 23.3651 17.1856 23.576 16.4701L26.612 15.5701C26.7238 15.5356 26.8216 15.4663 26.8913 15.3725C26.961 15.2786 26.9988 15.1649 26.9994 15.0481V11.9791C27.0047 11.8672 26.9756 11.7563 26.916 11.6614C26.8564 11.5665 26.7692 11.492 26.6661 11.4481ZM13.5402 18.45C12.5603 18.45 11.6023 18.1597 10.7875 17.6158C9.97265 17.0719 9.33757 16.2988 8.96255 15.3943C8.58753 14.4899 8.48941 13.4946 8.6806 12.5344C8.87178 11.5742 9.34368 10.6922 10.0366 9.99991C10.7296 9.30764 11.6124 8.8362 12.5736 8.64521C13.5347 8.45421 14.531 8.55224 15.4364 8.92689C16.3417 9.30154 17.1156 9.93599 17.66 10.75C18.2045 11.564 18.4951 12.5211 18.4951 13.5001C18.4951 14.8129 17.973 16.0719 17.0438 17.0002C16.1146 17.9285 14.8543 18.45 13.5402 18.45Z" fill="url(#paint0_linear)"/>
<defs>
<linearGradient id="paint0_linear" x1="0" y1="0" x2="32.4986" y2="15.3846" gradientUnits="userSpaceOnUse">
<stop stop-color="#891DDF"/>
<stop offset="0.6771" stop-color="#6611AD"/>
<stop offset="0.8594" stop-color="#5E009C"/>
</linearGradient>
</defs>
</svg>
