<svg width="70" height="70" viewBox="0 0 70 70" fill="none" xmlns="http://www.w3.org/2000/svg">
<path fill-rule="evenodd" clip-rule="evenodd" d="M61.25 5H8.75C7.58968 5 6.47688 5.52678 5.65641 6.46447C4.83594 7.40215 4.375 8.67392 4.375 10V60C4.375 61.3261 4.83594 62.5979 5.65641 63.5355C6.47688 64.4732 7.58968 65 8.75 65H61.25C62.4103 65 63.5231 64.4732 64.3436 63.5355C65.1641 62.5979 65.625 61.3261 65.625 60V10C65.625 8.67392 65.1641 7.40215 64.3436 6.46447C63.5231 5.52678 62.4103 5 61.25 5ZM8.75 0C6.42936 0 4.20376 1.05357 2.56282 2.92893C0.921872 4.8043 0 7.34784 0 10V60C0 62.6522 0.921872 65.1957 2.56282 67.0711C4.20376 68.9464 6.42936 70 8.75 70H61.25C62.3991 70 63.5369 69.7413 64.5985 69.2388C65.6601 68.7363 66.6247 67.9997 67.4372 67.0711C68.2497 66.1425 68.8942 65.0401 69.3339 63.8268C69.7737 62.6136 70 61.3132 70 60V10C70 7.34784 69.0781 4.8043 67.4372 2.92893C65.7962 1.05357 63.5706 0 61.25 0H8.75Z" fill="url(#paint0_linear)"/>
<path d="M46.5762 33.23C46.9012 32.8597 47.3198 32.6155 47.7728 32.5321C48.2258 32.4486 48.6903 32.5301 49.1006 32.765L65.625 42.5V65H4.375V55L15.9512 43.23C16.3088 42.8228 16.7786 42.5695 17.281 42.513C17.7833 42.4565 18.2873 42.6003 18.7075 42.92L30.345 51.785L46.5762 33.23Z" fill="url(#paint1_linear)"/>
<path fill-rule="evenodd" clip-rule="evenodd" d="M19.6875 30C20.5493 30 21.4027 29.806 22.1989 29.4291C22.9951 29.0522 23.7185 28.4997 24.3279 27.8033C24.9373 27.1069 25.4207 26.2801 25.7505 25.3701C26.0803 24.4602 26.25 23.4849 26.25 22.5C26.25 21.5151 26.0803 20.5398 25.7505 19.6299C25.4207 18.7199 24.9373 17.8931 24.3279 17.1967C23.7185 16.5003 22.9951 15.9478 22.1989 15.5709C21.4027 15.194 20.5493 15 19.6875 15C17.947 15 16.2778 15.7902 15.0471 17.1967C13.8164 18.6032 13.125 20.5109 13.125 22.5C13.125 24.4891 13.8164 26.3968 15.0471 27.8033C16.2778 29.2098 17.947 30 19.6875 30Z" fill="url(#paint2_linear)"/>
<defs>
<linearGradient id="paint0_linear" x1="0" y1="0" x2="84.2557" y2="39.8861" gradientUnits="userSpaceOnUse">
<stop stop-color="#891DDF"/>
<stop offset="0.6771" stop-color="#6611AD"/>
<stop offset="0.8594" stop-color="#5E009C"/>
</linearGradient>
<linearGradient id="paint1_linear" x1="0" y1="0" x2="84.2557" y2="39.8861" gradientUnits="userSpaceOnUse">
<stop stop-color="#891DDF"/>
<stop offset="0.6771" stop-color="#6611AD"/>
<stop offset="0.8594" stop-color="#5E009C"/>
</linearGradient>
<linearGradient id="paint2_linear" x1="0" y1="0" x2="84.2557" y2="39.8861" gradientUnits="userSpaceOnUse">
<stop stop-color="#891DDF"/>
<stop offset="0.6771" stop-color="#6611AD"/>
<stop offset="0.8594" stop-color="#5E009C"/>
</linearGradient>
</defs>
</svg>
