<svg width="21" height="24" viewBox="0 0 21 24" fill="none" xmlns="http://www.w3.org/2000/svg">
<path fill-rule="evenodd" clip-rule="evenodd" d="M10.6592 9.44661C11.8811 9.44661 13.053 8.96119 13.9171 8.09714C14.7811 7.23309 15.2665 6.06119 15.2665 4.83924C15.2665 3.61729 14.7811 2.44539 13.9171 1.58134C13.053 0.717291 11.8811 0.231873 10.6592 0.231873C9.43722 0.231873 8.26532 0.717291 7.40127 1.58134C6.53722 2.44539 6.0518 3.61729 6.0518 4.83924C6.0518 6.06119 6.53722 7.23309 7.40127 8.09714C8.26532 8.96119 9.43722 9.44661 10.6592 9.44661ZM4.13034 23.2687C1.79876 23.2687 -0.16528 21.3088 0.726976 19.1547C1.26724 17.8504 2.05912 16.6652 3.0574 15.6669C4.05568 14.6687 5.24081 13.8768 6.54512 13.3365C7.84943 12.7963 9.24739 12.5182 10.6592 12.5182C12.0709 12.5182 13.4689 12.7963 14.7732 13.3365C16.0775 13.8768 17.2627 14.6687 18.2609 15.6669C19.2592 16.6652 20.0511 17.8504 20.5914 19.1547C21.4836 21.3088 19.5196 23.2687 17.188 23.2687H4.13034Z" fill="#F5FAFE"/>
</svg>
