<svg width="49" height="46" viewBox="0 0 49 46" fill="none" xmlns="http://www.w3.org/2000/svg">
<path d="M16.4846 26.9985H18.3337C18.6681 26.9985 18.9435 27.2739 18.9435 27.6084C18.9435 27.9428 18.6681 28.2182 18.3337 28.2182H16.4846C16.1502 28.2182 15.8748 27.9428 15.8748 27.6084C15.8748 27.2739 16.1502 26.9985 16.4846 26.9985Z" fill="white"/>
<path d="M44.4775 37.169C42.8251 37.8772 41.0743 36.8542 40.6021 35.1231C39.6973 31.9166 38.7924 28.9068 37.9858 25.8381C37.3957 23.0053 37.0022 20.9201 41.7234 20.33C40.6612 12.2055 29.645 5.51714 20.4583 7.30727C11.4486 9.05806 4.42581 19.7398 6.62905 28.5724C8.16344 28.3757 9.59948 29.3593 9.97324 30.8543C10.9765 34.9067 11.4093 36.7755 12.7863 41.9295C13.1797 43.523 12.3535 45.2737 10.7011 45.2737C5.88152 45.2541 1.51439 40.5919 2.00619 35.5559C2.85207 30.2839 3.04879 26.1331 4.09139 20.9791C5.99955 11.6744 12.6486 5.32042 20.8911 4.14012C29.2909 2.94014 38.1825 7.72038 42.9234 16.0809C44.6545 19.13 46.3463 22.2185 47.9594 25.3266C50.261 29.7724 48.5889 35.4182 44.4775 37.169Z" fill="black"/>
<path d="M44.4775 37.169C42.8251 37.8772 41.0743 36.8542 40.6021 35.1231C39.6973 31.9166 38.7924 28.9068 37.9858 25.8381C37.3957 23.0053 37.0022 20.9201 41.7234 20.33C40.6612 12.2055 29.645 5.51714 20.4583 7.30727C11.4486 9.05806 4.42581 19.7398 6.62905 28.5724C8.16344 28.3757 9.59948 29.3593 9.97324 30.8543C10.9765 34.9067 11.4093 36.7755 12.7863 41.9295C13.1797 43.523 12.3535 45.2737 10.7011 45.2737C5.88152 45.2541 1.51439 40.5919 2.00619 35.5559C2.85207 30.2839 3.04879 26.1331 4.09139 20.9791C5.99955 11.6744 12.6486 5.32042 20.8911 4.14012C29.2909 2.94014 38.1825 7.72038 42.9234 16.0809C44.6545 19.13 46.3463 22.2185 47.9594 25.3266C50.261 29.7724 48.5889 35.4182 44.4775 37.169Z" fill="url(#paint0_linear)"/>
<path d="M7.27834 42.4408C7.27834 43.031 7.82915 43.5031 8.4193 43.4047C10.4848 43.031 14.6552 41.831 14.911 38.2704C15.1864 34.3557 15.2061 25.8969 15.2061 23.0445C15.2061 22.5133 14.7733 22.0806 14.2421 22.0806H12.2946C11.7635 22.0806 11.3307 22.5133 11.3307 23.0248L11.0356 37.7786C11.0356 38.0737 10.8783 38.3688 10.6422 38.5458C10.3471 38.7425 9.06847 39.2737 8.557 39.4901C7.25867 40.0605 7.27834 41.0638 7.27834 42.4408Z" fill="white"/>
<path d="M22.3665 22.5724L28.9369 35.1426L35.4089 22.9068C35.5663 22.6117 35.9991 22.6707 36.0777 22.9855L41.3891 42.4015C41.5465 42.9917 41.1137 43.5621 40.4842 43.5621H37.1794C36.7072 43.5621 36.2941 43.2277 36.2351 42.7556L34.5237 32.5263L29.4877 42.6376C29.291 43.0113 28.7599 43.031 28.5631 42.6376L23.1141 32.0542L21.3633 42.2245C21.2649 42.7556 20.8125 43.149 20.2617 43.149H17.2322C16.6224 43.149 16.1896 42.5982 16.347 42.0081L21.501 22.6314C21.5993 22.2576 22.1698 22.1986 22.3665 22.5724Z" fill="white"/>
<path d="M43.3563 41.3196H42.8645V43.5621H42.294V41.3196H41.9792V40.8671H42.294V40.6704C42.294 40.3556 42.3727 40.1392 42.5301 40.0015C42.6874 39.8638 42.9628 39.7852 43.3169 39.7852V40.2573C43.1399 40.2573 43.0219 40.2966 42.9628 40.3556C42.9038 40.4147 42.8645 40.5327 42.8645 40.6901V40.8868H43.3563V41.3196Z" fill="white"/>
<path d="M47.1134 40.8081C47.3298 40.8081 47.5068 40.8474 47.6839 40.9458C47.8609 41.0245 47.9789 41.1622 48.0773 41.3392C48.1756 41.5163 48.215 41.713 48.215 41.9687V43.5621H47.6642V42.0474C47.6642 41.8114 47.6052 41.6146 47.4871 41.4966C47.3691 41.3589 47.1921 41.2999 46.9953 41.2999C46.779 41.2999 46.6216 41.3589 46.5035 41.4966C46.3855 41.6146 46.3265 41.8114 46.3265 42.0474V43.5621H45.7757V42.0474C45.7757 41.8114 45.7167 41.6146 45.5987 41.4966C45.4806 41.3589 45.3036 41.2999 45.1069 41.2999C44.8905 41.2999 44.7331 41.3589 44.6151 41.4966C44.497 41.6146 44.438 41.8114 44.438 42.0474V43.5621H43.8872V40.8671H44.438V41.1819C44.5364 41.0638 44.6544 40.9852 44.7921 40.9261C44.9298 40.8671 45.0872 40.8278 45.2446 40.8278C45.4609 40.8278 45.6577 40.8671 45.815 40.9655C45.9921 41.0638 46.1101 41.1819 46.2085 41.3589C46.2872 41.2015 46.4249 41.0638 46.5822 40.9655C46.7396 40.8671 46.9167 40.8081 47.1134 40.8081Z" fill="white"/>
<defs>
<linearGradient id="paint0_linear" x1="15.9409" y1="6.45234" x2="29.486" y2="43.9687" gradientUnits="userSpaceOnUse">
<stop stop-color="#6E00C1"/>
<stop offset="0.3958" stop-color="#AC00E7"/>
<stop offset="0.6771" stop-color="#6C00C6"/>
<stop offset="0.8594" stop-color="#5E009C"/>
</linearGradient>
</defs>
</svg>
