<svg width="48" height="42" viewBox="0 0 48 42" fill="none" xmlns="http://www.w3.org/2000/svg">
<path d="M14.5163 23.0415H16.3655C16.6999 23.0415 16.9753 23.317 16.9753 23.6514C16.9753 23.9858 16.6999 24.2612 16.3655 24.2612H14.5163C14.1819 24.2612 13.9065 23.9858 13.9065 23.6514C13.9065 23.317 14.1819 23.0415 14.5163 23.0415Z" fill="black"/>
<path d="M42.5092 33.2119C40.8568 33.9201 39.106 32.8972 38.6339 31.1661C37.729 27.9596 36.8241 24.9498 36.0175 21.881C35.4274 19.0483 35.034 16.9631 39.7552 16.3729C38.6929 8.2485 27.6767 1.56011 18.49 3.35024C9.48036 5.10102 2.45755 15.7828 4.66078 24.6154C6.19518 24.4187 7.63122 25.4023 8.00498 26.8973C9.00824 30.9497 9.44102 32.8185 10.818 37.9725C11.2115 39.5659 10.3853 41.3167 8.73284 41.3167C3.91326 41.297 -0.453869 36.6348 0.0379242 31.5989C0.883809 26.3268 1.08053 22.1761 2.12313 17.0221C4.03129 7.71737 10.6803 1.36339 18.9228 0.183089C27.3226 -1.01689 36.2143 3.76335 40.9552 12.1238C42.6863 15.173 44.378 18.2614 45.9911 21.3696C48.2927 25.8154 46.6206 31.4612 42.5092 33.2119Z" fill="black"/>
<path d="M42.5092 33.2119C40.8568 33.9201 39.106 32.8972 38.6339 31.1661C37.729 27.9596 36.8241 24.9498 36.0175 21.881C35.4274 19.0483 35.034 16.9631 39.7552 16.3729C38.6929 8.2485 27.6767 1.56011 18.49 3.35024C9.48036 5.10102 2.45755 15.7828 4.66078 24.6154C6.19518 24.4187 7.63122 25.4023 8.00498 26.8973C9.00824 30.9497 9.44102 32.8185 10.818 37.9725C11.2115 39.5659 10.3853 41.3167 8.73284 41.3167C3.91326 41.297 -0.453869 36.6348 0.0379242 31.5989C0.883809 26.3268 1.08053 22.1761 2.12313 17.0221C4.03129 7.71737 10.6803 1.36339 18.9228 0.183089C27.3226 -1.01689 36.2143 3.76335 40.9552 12.1238C42.6863 15.173 44.378 18.2614 45.9911 21.3696C48.2927 25.8154 46.6206 31.4612 42.5092 33.2119Z" fill="url(#paint0_linear)"/>
<path d="M5.31008 38.484C5.31008 39.0742 5.86088 39.5463 6.45104 39.4479C8.51657 39.0742 12.687 37.8742 12.9427 34.3136C13.2181 30.3989 13.2378 21.9401 13.2378 19.0877C13.2378 18.5565 12.805 18.1238 12.2739 18.1238H10.3264C9.79523 18.1238 9.36246 18.5565 9.36246 19.068L9.06738 33.8218C9.06738 34.1169 8.91 34.412 8.67394 34.589C8.37887 34.7857 7.1002 35.3169 6.58874 35.5332C5.2904 36.1037 5.31008 37.107 5.31008 38.484Z" fill="black"/>
<path d="M20.3983 18.6156L26.9686 31.1858L33.4406 18.95C33.598 18.6549 34.0308 18.7139 34.1095 19.0287L39.4209 38.4447C39.5782 39.0348 39.1454 39.6053 38.516 39.6053H35.2111C34.739 39.6053 34.3259 39.2709 34.2669 38.7988L32.5554 28.5695L27.5194 38.6807C27.3227 39.0545 26.7916 39.0742 26.5949 38.6807L21.1458 28.0973L19.395 38.2676C19.2967 38.7988 18.8442 39.1922 18.2934 39.1922H15.264C14.6541 39.1922 14.2213 38.6414 14.3787 38.0512L19.5327 18.6746C19.6311 18.3008 20.2016 18.2418 20.3983 18.6156Z" fill="black"/>
<path d="M41.388 37.3627H40.8962V39.6053H40.3257V37.3627H40.011V36.9102H40.3257V36.7135C40.3257 36.3988 40.4044 36.1824 40.5618 36.0447C40.7192 35.907 40.9946 35.8283 41.3487 35.8283V36.3004C41.1716 36.3004 41.0536 36.3398 40.9946 36.3988C40.9356 36.4578 40.8962 36.5758 40.8962 36.7332V36.9299H41.388V37.3627Z" fill="black"/>
<path d="M45.1451 36.8513C45.3615 36.8513 45.5385 36.8906 45.7156 36.989C45.8926 37.0677 46.0107 37.2054 46.109 37.3824C46.2074 37.5595 46.2467 37.7562 46.2467 38.0119V39.6053H45.6959V38.0906C45.6959 37.8545 45.6369 37.6578 45.5189 37.5398C45.4008 37.4021 45.2238 37.3431 45.0271 37.3431C44.8107 37.3431 44.6533 37.4021 44.5353 37.5398C44.4173 37.6578 44.3582 37.8545 44.3582 38.0906V39.6053H43.8074V38.0906C43.8074 37.8545 43.7484 37.6578 43.6304 37.5398C43.5124 37.4021 43.3353 37.3431 43.1386 37.3431C42.9222 37.3431 42.7648 37.4021 42.6468 37.5398C42.5288 37.6578 42.4698 37.8545 42.4698 38.0906V39.6053H41.9189V36.9103H42.4698V37.225C42.5681 37.107 42.6861 37.0283 42.8238 36.9693C42.9615 36.9103 43.1189 36.8709 43.2763 36.8709C43.4927 36.8709 43.6894 36.9103 43.8468 37.0086C44.0238 37.107 44.1419 37.225 44.2402 37.4021C44.3189 37.2447 44.4566 37.107 44.614 37.0086C44.7714 36.9103 44.9484 36.8513 45.1451 36.8513Z" fill="black"/>
<defs>
<linearGradient id="paint0_linear" x1="13.9726" y1="2.49531" x2="27.5178" y2="40.0117" gradientUnits="userSpaceOnUse">
<stop stop-color="#6E00C1"/>
<stop offset="0.3958" stop-color="#AC00E7"/>
<stop offset="0.6771" stop-color="#6C00C6"/>
<stop offset="0.8594" stop-color="#5E009C"/>
</linearGradient>
</defs>
</svg>
