<svg width="27" height="21" viewBox="0 0 27 21" fill="none" xmlns="http://www.w3.org/2000/svg">
<path d="M23.8352 3.32669C25.0471 2.61331 25.8496 1.63961 26.2425 0.401274C25.1357 0.975295 23.9479 1.39241 22.7162 1.63961C21.6618 0.552291 20.3269 0 18.7265 0C17.162 0 15.8406 0.526402 14.7622 1.55044C14.2414 2.03672 13.8296 2.61985 13.5521 3.2641C13.2746 3.90835 13.1372 4.60014 13.1483 5.2971C13.1483 5.74152 13.2068 6.13848 13.3238 6.47504C8.71002 6.32402 4.89123 4.4888 1.8824 0.956441C1.37242 1.82083 1.11744 2.70105 1.11744 3.61147C1.11744 5.48264 1.94089 6.96548 3.5848 8.05424C2.64735 7.97802 1.8209 7.75077 1.11744 7.37826C1.11744 8.7144 1.52692 9.83049 2.34737 10.8128C3.14436 11.77 4.26753 12.4274 5.51969 12.6696C5.05172 12.7847 4.55825 12.8393 4.05127 12.8393C3.5833 12.8393 3.25182 12.8019 3.05533 12.72C3.40031 13.8087 4.05128 14.6918 4.99172 15.3678C5.92143 16.0447 7.05234 16.4191 8.21954 16.4364C6.22165 17.9394 3.93728 18.683 1.35292 18.683C0.71996 18.683 0.271485 18.6743 0 18.6283C2.54536 20.2133 5.3787 21 8.51353 21C11.7218 21 14.5567 20.2205 17.0241 18.6614C19.4914 17.111 21.3123 15.1981 22.4823 12.9458C23.6392 10.7664 24.2416 8.3553 24.2402 5.9098V5.2367C25.3185 4.47431 26.2521 3.53972 27 2.4738C25.99 2.89358 24.9254 3.18047 23.8352 3.32669Z" fill="white"/>
</svg>
