<svg width="27" height="26" viewBox="0 0 27 26" fill="none" xmlns="http://www.w3.org/2000/svg">
<path d="M26.913 7.67402C26.8979 6.58234 26.6853 5.50151 26.2848 4.47988C25.9375 3.61814 25.407 2.83552 24.7273 2.18204C24.0475 1.52855 23.2334 1.01857 22.3371 0.684666C21.288 0.306092 20.1798 0.10139 19.0595 0.0792772C17.6172 0.0172969 17.1599 0 13.4985 0C9.83713 0 9.36784 9.66535e-08 7.93597 0.0792772C6.81621 0.101553 5.70849 0.306252 4.65993 0.684666C3.76341 1.01833 2.94922 1.52824 2.26944 2.18175C1.58966 2.83527 1.05926 3.618 0.712183 4.47988C0.317605 5.48761 0.105138 6.55277 0.0839627 7.62934C0.0194913 9.01741 0 9.45704 0 12.9769C0 16.4968 -1.11709e-08 16.9466 0.0839627 18.3245C0.106453 19.4027 0.317859 20.4665 0.712183 21.4769C1.05985 22.3385 1.59064 23.1209 2.27064 23.7742C2.95065 24.4274 3.76492 24.9371 4.66143 25.2707C5.70711 25.6644 6.81503 25.8838 7.93747 25.9193C9.38133 25.9813 9.83863 26 13.5 26C17.1614 26 17.6307 26 19.0625 25.9193C20.1828 25.8981 21.2911 25.6938 22.3401 25.3153C23.2362 24.981 24.0501 24.4709 24.7298 23.8175C25.4095 23.1641 25.9401 22.3816 26.2878 21.5201C26.6821 20.5111 26.8935 19.4474 26.916 18.3678C26.9805 16.9812 27 16.5415 27 13.0202C26.997 9.50028 26.997 9.05344 26.913 7.67402ZM13.4895 19.6333C9.66021 19.6333 6.55808 16.6511 6.55808 12.9697C6.55808 9.28839 9.66021 6.30613 13.4895 6.30613C15.3278 6.30613 17.0909 7.00819 18.3908 8.25786C19.6907 9.50752 20.4209 11.2024 20.4209 12.9697C20.4209 14.737 19.6907 16.4319 18.3908 17.6816C17.0909 18.9313 15.3278 19.6333 13.4895 19.6333ZM20.6968 7.61348C19.8017 7.61348 19.0805 6.91873 19.0805 6.05965C19.0805 5.85569 19.1223 5.65374 19.2035 5.4653C19.2847 5.27687 19.4037 5.10566 19.5537 4.96144C19.7037 4.81722 19.8818 4.70282 20.0778 4.62477C20.2738 4.54671 20.4839 4.50654 20.6961 4.50654C20.9082 4.50654 21.1183 4.54671 21.3143 4.62477C21.5103 4.70282 21.6884 4.81722 21.8384 4.96144C21.9884 5.10566 22.1074 5.27687 22.1886 5.4653C22.2698 5.65374 22.3116 5.85569 22.3116 6.05965C22.3116 6.91873 21.5889 7.61348 20.6968 7.61348Z" fill="white"/>
<path d="M13.4895 17.2983C15.9762 17.2983 17.992 15.3603 17.992 12.9697C17.992 10.5792 15.9762 8.6412 13.4895 8.6412C11.0028 8.6412 8.98701 10.5792 8.98701 12.9697C8.98701 15.3603 11.0028 17.2983 13.4895 17.2983Z" fill="white"/>
</svg>
