<svg width="32" height="20" viewBox="0 0 32 20" fill="none" xmlns="http://www.w3.org/2000/svg">
<path d="M31.7091 5.14286C31.4182 3 31.1273 1.42857 30.2545 0.857143C29.3818 0.142857 21.8182 0 16 0C10.1818 0 2.61818 0.142857 1.74545 0.857143C0.872727 1.42857 0.581818 3 0.290909 5.14286C6.50233e-08 7.28572 0 8.57143 0 10C0 11.4286 6.50233e-08 12.7143 0.290909 14.8571C0.581818 17 0.872727 18.5714 1.74545 19.1429C2.61818 19.8571 10.1818 20 16 20C21.8182 20 29.3818 19.8571 30.2545 19.1429C31.1273 18.5714 31.4182 17 31.7091 14.8571C32 12.7143 32 11.4286 32 10C32 8.57143 32 7.28572 31.7091 5.14286ZM13.0909 15.1429V4.85714L21.8182 10L13.0909 15.1429Z" fill="white"/>
</svg>
