<svg width="25" height="25" viewBox="0 0 25 25" fill="none" xmlns="http://www.w3.org/2000/svg">
<path d="M23.1483 0H1.84549C0.826736 0 0 0.807292 0 1.80139V23.1962C0 24.1917 0.826736 25 1.84549 25H23.1483C24.1677 25 25 24.1917 25 23.1962V1.80139C25 0.807292 24.1677 0 23.1483 0ZM7.41458 21.3035H3.70486V9.37326H7.41458V21.3035ZM5.55972 7.74201C5.27735 7.74201 4.99775 7.68637 4.7369 7.57827C4.47604 7.47018 4.23904 7.31173 4.03944 7.11201C3.83984 6.91228 3.68156 6.67518 3.57362 6.41425C3.46569 6.15332 3.41023 5.87369 3.41042 5.59132C3.41042 5.02133 3.63684 4.47469 4.03988 4.07165C4.44292 3.66861 4.98956 3.44219 5.55955 3.44219C6.12953 3.44219 6.67617 3.66861 7.07921 4.07165C7.48225 4.47469 7.70868 5.02133 7.70868 5.59132C7.70868 6.16142 7.48233 6.70819 7.07937 7.11148C6.67641 7.51476 6.12982 7.74155 5.55972 7.74201ZM21.3021 21.3035H17.5983V15.5021C17.5983 14.1181 17.5712 12.3385 15.6708 12.3385C13.741 12.3385 13.4469 13.8458 13.4469 15.4017V21.3038H9.74028V9.37326H13.2976V11.0024H13.3483C13.8434 10.0649 15.0531 9.07569 16.8573 9.07569C20.6094 9.07569 21.3024 11.5458 21.3024 14.7594L21.3021 21.3035Z" fill="white"/>
</svg>
