<svg width="26" height="27" viewBox="0 0 26 27" fill="none" xmlns="http://www.w3.org/2000/svg">
<path d="M25.5201 15.4035C25.6042 14.8022 25.6471 14.1958 25.6487 13.5886C25.6487 10.0529 24.4267 6.996 22.0188 4.50203C19.585 1.98485 16.595 0.708123 13.1327 0.708123C12.7464 0.70756 12.3603 0.725959 11.9757 0.763254C10.8774 0.254113 9.68117 -0.00640808 8.47155 0.000119708C6.14747 0.000119708 4.06172 0.885124 2.44252 2.56083C0.846433 4.20752 0 6.31122 0 8.64269C0 9.84978 0.22533 10.9916 0.673102 12.0492C0.606012 12.5601 0.572237 13.0748 0.571992 13.59C0.571992 17.1271 1.80409 20.1869 4.22928 22.6823C6.67469 25.1952 9.67187 26.469 13.1327 26.469C13.4996 26.469 13.9228 26.44 14.4269 26.3819C15.4236 26.7925 16.4621 27 17.5267 27C19.8204 27 21.896 26.1092 23.5311 24.4219C24.3235 23.6174 24.9495 22.6635 25.3732 21.6149C25.7969 20.5664 26.0098 19.444 25.9997 18.3125C25.9997 17.3302 25.8393 16.3553 25.5201 15.4035ZM18.0553 18.3574C17.6451 18.9769 17.0023 19.4905 16.1212 19.9026C15.2416 20.2551 14.229 20.4321 13.0879 20.4321C11.71 20.4321 10.5515 20.1811 9.61554 19.6791C8.97712 19.3317 8.43348 18.832 8.03245 18.2239C7.62223 17.5754 7.41424 16.9733 7.41424 16.4133C7.41424 16.0608 7.54712 15.7503 7.81001 15.4862C7.9425 15.354 8.1006 15.2505 8.27451 15.1821C8.44843 15.1138 8.63446 15.082 8.82111 15.0887C9.11432 15.0887 9.40754 15.1932 9.70076 15.3977C9.93476 15.6328 10.1095 15.9287 10.2265 16.2813C10.2569 16.3103 10.4475 16.6484 10.7985 17.2969C10.9459 17.5014 11.2087 17.7075 11.5886 17.9135C11.9425 18.0905 12.4091 18.179 12.9969 18.179C13.7885 18.179 14.4486 18.0034 14.9758 17.6509C15.4438 17.3259 15.6778 16.9153 15.6778 16.4133C15.6778 16.0013 15.5449 15.6908 15.282 15.4862C14.9956 15.2068 14.6507 14.9951 14.2724 14.8667L13.8116 14.7579L13.1515 14.5795C12.9425 14.5153 12.7297 14.4639 12.5145 14.4257C11.5193 14.2211 10.67 13.9556 9.96365 13.6306C9.34832 13.3956 8.79222 12.985 8.29389 12.396C7.88512 11.836 7.67857 11.1729 7.67857 10.4083C7.67857 9.64231 7.89812 8.96623 8.33867 8.37719C8.77777 7.78816 9.40754 7.34565 10.228 7.05259C11.0499 6.7276 11.9887 6.56801 13.0432 6.56801C13.8347 6.56801 14.5829 6.66957 15.2849 6.87704C15.9609 7.11207 16.5026 7.39208 16.9128 7.71707C17.2927 8.06962 17.6018 8.42217 17.8358 8.77472C18.0409 9.24479 18.1449 9.62926 18.1449 9.92232C18.1488 10.1029 18.1155 10.2822 18.0471 10.4493C17.9788 10.6163 17.8768 10.7673 17.7477 10.8929C17.6187 11.0326 17.4625 11.1441 17.2888 11.2205C17.1151 11.2968 16.9276 11.3365 16.738 11.3369C16.4378 11.3442 16.1438 11.2502 15.9031 11.0699C15.7558 10.9234 15.5666 10.6593 15.3311 10.2763C15.1429 9.84761 14.8575 9.46903 14.4977 9.17079C14.1467 8.90674 13.6036 8.77472 12.8698 8.77472C12.1375 8.77472 11.5814 8.9227 11.2001 9.21722C10.7899 9.48417 10.5847 9.79175 10.5847 10.1443C10.5847 10.3793 10.657 10.5737 10.8043 10.7188C10.9516 10.9263 11.1394 11.0888 11.3763 11.2063C11.5236 11.2934 11.7721 11.3978 12.1245 11.5139L12.7167 11.6677C13.0244 11.7446 13.2815 11.7939 13.4866 11.8229C13.8954 11.9114 14.6003 12.1015 15.5969 12.3974C16.1833 12.602 16.7394 12.866 17.2667 13.1925C17.7664 13.5436 18.1319 13.9426 18.3673 14.3822C18.6013 14.9117 18.7169 15.5007 18.7169 16.1478C18.7173 16.9336 18.4872 17.7022 18.0553 18.3574Z" fill="white"/>
</svg>
